<svg xmlns="http://www.w3.org/2000/svg" viewBox="0 0 100 100">
  <defs>
    <linearGradient id="fg" x1="0" y1="1" x2="1" y2="0"><stop offset="0" stop-color="#2f9e3f"/><stop offset="1" stop-color="#a6d63f"/></linearGradient>
    <linearGradient id="fb" x1="0.15" y1="0" x2="0.85" y2="1"><stop offset="0" stop-color="#33b4e8"/><stop offset="0.55" stop-color="#1a63b5"/><stop offset="1" stop-color="#0c3576"/></linearGradient>
    <radialGradient id="fd" cx="0.35" cy="0.3" r="0.85"><stop offset="0" stop-color="#ffe463"/><stop offset="1" stop-color="#f39a12"/></radialGradient>
  </defs>
  <rect x="4" y="4" width="92" height="92" rx="20" fill="#ffffff"/>
  <g transform="translate(-12.16 -3.76) scale(1.12)">
    <path d="M42 53 C33 40 42 23 65 19 C57 33 53 45 49 53 C47 56 44 56 42 53 Z" fill="url(#fg)"/>
    <path d="M45 51 C40 41 47 29 61 25 C56 37 52 45 49 51 C47 53 46 53 45 51 Z" fill="#bfe05a" opacity="0.75"/>
    <path d="M58 37 C44 33 33 42 37 55 C40 65 52 68 63 63 C71 60 75 65 84 60 C75 71 60 73 49 69 C34 63 28 49 35 41 C40 34 50 34 58 37 Z" fill="url(#fb)"/>
    <path d="M24 60 C39 75 67 77 87 60 C68 72 43 71 31 60 C28 57 26 57 24 60 Z" fill="url(#fb)"/>
    <circle cx="66" cy="28" r="8.5" fill="url(#fd)"/>
  </g>
</svg>
